# xmcd
#
# Track frame offsets:
#	150
#	15242
#	33642
#	51925
#	66150
#	81880
#	96660
#	113587
#	129037
#	148335
#	165600
#	182162
#	196232
#	212225
#	229685
#	245355
#	259420
#	275950
#	294357
#	311372
#	323920
#
# Disc length: 4488 seconds
#
# Revision: 1
# Processed by: cddbd v1.4PL0 Copyright (c) Steve Scherf et al.
# Submitted via: audiograbber 1.80
#
DISCID=38118615
DTITLE=Steve Wariner - The Flower That Shattered The Stone
DYEAR=1900
DGENRE=
TTITLE0=The Flower That Shattered The Stone
TTITLE1=Some Fools Never Learn
TTITLE2=You Can Dream Of Me
TTITLE3=What I Didn't Do
TTITLE4=Heart Trouble
TTITLE5=Life's Highway
TTITLE6=Small Town Girl
TTITLE7=That's How You Know When Love's Right
TTITLE8=Starting Over Again
TTITLE9=The Weekend
TTITLE10=Hey Alarm Clock
TTITLE11=Lynda
TTITLE12=Where Did I Go Wrong
TTITLE13=I Got Dreams
TTITLE14=I Should Be With You
TTITLE15=The Hand That Rocks The Cradle
TTITLE16=Baby I'm Yours
TTITLE17=Hold ON (A Little Longer)
TTITLE18=When I Could Come Home To You
TTITLE19=Precious Thing
TTITLE20=L-O-V-E Love
EXTD=Import
EXTT0=
EXTT1=
EXTT2=
EXTT3=
EXTT4=
EXTT5=
EXTT6=
EXTT7=
EXTT8=
EXTT9=
EXTT10=
EXTT11=
EXTT12=
EXTT13=
EXTT14=
EXTT15=
EXTT16=
EXTT17=
EXTT18=
EXTT19=
EXTT20=
PLAYORDER=
